<svg fill="none" height="120" viewBox="0 0 120 120" width="120" xmlns="http://www.w3.org/2000/svg"><path d="m0 0h120v120h-120z" fill="#1880b6"/><path d="m34.8148 30.4074c0-1.3296 1.0779-2.4074 2.4074-2.4074 1.3297 0 2.4074 1.0778 2.4074 2.4074v62.5926h-4.8148z" fill="#daecf2"/><path d="m80.5556 30.4074c0-1.3296 1.0778-2.4074 2.4074-2.4074s2.4074 1.0778 2.4074 2.4074v62.5926h-4.8148z" fill="#daecf2"/><g stroke="#324249" stroke-linecap="round" stroke-linejoin="round" stroke-width="2"><path d="m34.8148 30.4074c0-1.3296 1.0779-2.4074 2.4074-2.4074 1.3297 0 2.4074 1.0778 2.4074 2.4074v62.5926h-4.8148z"/><path d="m80.5556 30.4074c0-1.3296 1.0778-2.4074 2.4074-2.4074s2.4074 1.0778 2.4074 2.4074v62.5926h-4.8148z"/><path d="m90.1852 35.2222h-60.1852v31.2963h60.1852z" fill="#daecf2"/></g><path d="m79.3519 35.2222h10.8333v5.216l-12.037 26.0803h-13.2408z" fill="#ff6673"/><path d="m52.8704 35.2222h13.2407l-14.4444 31.2963h-13.2408z" fill="#ff6673"/><path d="m30 35.2222h9.6296l-9.6296 20.8642z" fill="#ff6673"/><path d="m79.3519 35.2222h10.8333v5.216l-12.037 26.0803h-13.2408z" stroke="#324249" stroke-linecap="round" stroke-linejoin="round" stroke-width="2"/><path d="m52.8704 35.2222h13.2407l-14.4444 31.2963h-13.2408z" stroke="#324249" stroke-linecap="round" stroke-linejoin="round" stroke-width="2"/><path d="m30 35.2222h9.6296l-9.6296 20.8642z" stroke="#324249" stroke-linecap="round" stroke-linejoin="round" stroke-width="2"/></svg>