<svg fill="none" height="120" viewBox="0 0 120 120" width="120" xmlns="http://www.w3.org/2000/svg" xmlns:xlink="http://www.w3.org/1999/xlink"><clipPath id="a"><path d="m0 0h120v120h-120z"/></clipPath><g clip-path="url(#a)"><path d="m0 0h120v120h-120z" fill="#1880b6"/><g stroke="#324249" stroke-linecap="round" stroke-linejoin="round" stroke-width="2"><path d="m56.4167 27-33.4167 16.2437 21.6351 44.5082 33.4167-16.2436z" fill="#86d7f2"/><path d="m33.7554 48.9753 21.2983-10.0062"/><path d="m36.9543 55.5559 21.2983-10.0062"/><path d="m40.1531 62.1365 21.2983-10.0062"/><path d="m72.3463 28.6456-36.1794 8.461 11.2694 48.1878 36.1793-8.461z" fill="#86d7f2"/><path d="m45.3906 45.0725 22.9825-5.0545"/><path d="m47.0568 52.1971 22.9825-5.0544"/><path d="m48.723 59.3217 22.9825-5.0544"/><path d="m85.6818 34.5957-37.154-.3343-.4453 49.486 37.154.3343z" fill="#86d7f2"/><path d="m55.6062 44.1825 23.5259.5236"/><path d="m55.5403 51.499 23.526.5236"/><path d="m55.4745 58.8156 23.526.5236"/><path d="m98 44.448-35.8289-9.84-13.1061 47.721 35.8289 9.84z" fill="#f0eed5"/><path d="m66.4721 46.0112 22.607 6.5322"/><path d="m64.5344 53.0668 22.6069 6.5322"/><path d="m62.5966 60.1224 22.6069 6.5322"/></g></g></svg>