<svg viewBox="0 0 24 24" xmlns="http://www.w3.org/2000/svg"><path d="m18.36475 2.0791h-12.7295c-.96484 0-1.75.78516-1.75 1.75v16.3418c0 .96484.78516 1.75 1.75 1.75h12.72949c.96484 0 1.75-.78516 1.75-1.75v-16.3418c0-.96484-.78516-1.75-1.75-1.75zm.25 18.0918c0 .1377-.1123.25-.25.25h-12.7295c-.1377 0-.25-.1123-.25-.25v-16.3418c0-.1377.1123-.25.25-.25h12.72949c.1377 0 .25.1123.25.25v16.3418z"/><path d="m8.24709 12.14803h8.24946v1.49984h-8.24946z" transform="matrix(.70710678 -.70710678 .70710678 .70710678 -5.4966 12.52592)"/><path d="m8.10231 9.95906h4.16012v1.49984h-4.16012z" transform="matrix(.70710678 -.70710678 .70710678 .70710678 -4.59005 10.33661)"/></svg>